<?xml version="1.0" encoding="utf-8"?>
<!-- Generator: Adobe Illustrator 21.1.0, SVG Export Plug-In . SVG Version: 6.00 Build 0)  -->
<svg version="1.1" id="Capa_1" xmlns="http://www.w3.org/2000/svg" xmlns:xlink="http://www.w3.org/1999/xlink" x="0px" y="0px"
	 viewBox="0 0 99 99" style="enable-background:new 0 0 99 99;" xml:space="preserve">
<g id="Layer_2">
	<g>
		<rect x="43.5" y="43.9" transform="matrix(0.9482 -0.3176 0.3176 0.9482 -13.4501 18.6596)" width="13.9" height="13.5"/>
		<g>
			<rect x="43.5" y="43.9" transform="matrix(0.9482 -0.3176 0.3176 0.9482 -13.4501 18.6596)" width="13.9" height="13.5"/>
			<path d="M95.9,36.9c-10.2-34-24.9-42-59-31.7s-42,24.9-31.7,59s24.9,42,59,31.7S106.1,70.9,95.9,36.9z M78.7,59l-6.4,2.1l2.2,6.6
				c0.9,2.7-0.6,5.6-3.2,6.5c-0.6,0.2-1.2,0.3-1.7,0.2c-2.1-0.1-4-1.4-4.7-3.5l-2.2-6.6l-13.2,4.4l2.2,6.6c0.9,2.7-0.6,5.6-3.2,6.5
				c-0.6,0.2-1.2,0.3-1.7,0.2c-2.1-0.1-4-1.4-4.7-3.5L39.6,72l-6.4,2.1c-0.6,0.2-1.2,0.3-1.7,0.2c-2.1-0.1-4-1.4-4.7-3.5
				c-0.9-2.7,0.6-5.6,3.2-6.5l6.4-2.1l-4.3-12.7l-6.4,2.1c-0.6,0.2-1.2,0.3-1.7,0.2c-2.1-0.1-4-1.4-4.7-3.5
				c-0.9-2.7,0.6-5.6,3.2-6.5l6.4-2.1l-2.2-6.6c-0.9-2.7,0.6-5.6,3.2-6.5s5.6,0.6,6.5,3.2l2.2,6.6l13.2-4.4l-2.2-6.6
				c-0.9-2.7,0.6-5.6,3.2-6.5c2.7-0.9,5.6,0.6,6.5,3.2l2.2,6.6l6.4-2.1c2.7-0.9,5.6,0.6,6.5,3.2c0.9,2.7-0.6,5.6-3.2,6.5l-6.4,2.1
				L69,51.4l6.4-2.1c2.7-0.9,5.6,0.6,6.5,3.2C82.8,55.2,81.4,58.1,78.7,59z"/>
		</g>
	</g>
</g>
</svg>
